<svg xmlns="http://www.w3.org/2000/svg" width="396" height="192.95668274780184" viewBox="0 0 350.00000000000006 170.54252263063296" class="css-1j8o68f"><defs id="SvgjsDefs2470"></defs><g id="SvgjsG2471" featurekey="symbolFeature-0" transform="matrix(1.3029891198454373,0,0,1.3029891198454373,113.06724565882558,0)" fill="#111"><g xmlns="http://www.w3.org/2000/svg"><path d="M16.238,69.221c-2.861,7.646-5.035-23.379,1.227-29.467c0.124,3.205,1.203,3.803,2.01,6.627   c1.631-5.386,1.773-11.406,3.951-16.665c2.071-5.004,4.641-8.813,8.764-12.097c0.756,1.269,1.221,2.633,1.957,3.866   C38.679,5.734,55.402,7.111,66.637,0c0.372,2.816-1.193,5.962-1.49,8.763c-0.331,3.108-0.401,6.089-1.54,8.94   c-2.854,7.146-8.21,8.858-13.702,13.127c2.551-0.254,4.816-0.626,7.418-0.709c-4.278,1.021-4.527,5.329-6.11,8.227   c-2.351,4.303-5.308,4.836-9.206,6.949c2.374-0.488,5.678,0.698,7.334,2.185c-5.66,3.822-6.623,10.742-11.574,14.954   c-4.041,3.44-14.17,6.236-15.429,11.627l-9.261,16.238c0,0,17.01-56.831,36.569-70.855C49.646,19.445,35.067,18.889,16.238,69.221z   "></path><g><path d="M17.18,96c-2.063,0-4.154-0.689-5.998-2.848c-0.732-0.857-0.631-2.146,0.227-2.879c0.858-0.734,2.147-0.632,2.88,0.227    c1.749,2.047,3.542,1.685,7.517,0.302c0.775-0.271,1.578-0.55,2.392-0.784c2.288-0.659,4.58-1.396,6.796-2.108    c6.469-2.08,13.158-4.231,20.396-4.649c2.004-0.104,3.694,0.566,5.189,1.166c0.838,0.337,1.631,0.654,2.411,0.813    c2.658,0.54,4.699,0.688,6.24,0.449c1.946-0.302,3.855-1.731,5.701-3.115c0.644-0.483,1.276-0.956,1.905-1.386    c0.313-0.212,0.641-0.442,0.981-0.684c2.698-1.896,6.057-4.274,9.636-3.926c1.123,0.104,1.949,1.099,1.846,2.223    s-1.1,1.947-2.223,1.846c-2.092-0.203-4.76,1.688-6.908,3.2c-0.357,0.251-0.702,0.494-1.03,0.718    c-0.581,0.396-1.164,0.834-1.757,1.277c-2.143,1.605-4.571,3.426-7.527,3.884c-2.027,0.313-4.539,0.155-7.679-0.482    c-1.146-0.233-2.149-0.637-3.12-1.026c-1.256-0.505-2.344-0.94-3.432-0.878c-6.718,0.388-12.868,2.366-19.379,4.46    c-2.246,0.722-4.568,1.468-6.916,2.145c-0.725,0.209-1.453,0.465-2.182,0.718C21.388,95.272,19.299,96,17.18,96z"></path></g></g></g><g id="SvgjsG2472" featurekey="nameFeature-0" transform="matrix(0.9122328268121748,0,0,0.9122328268121748,-0.9487221050857411,133.83427214855854)" fill="#111"><path d="M9.08 28.32 l-1.04 0 c-1.08 2.92 -1.68 6.76 -1.96 9.44 c-0.16 1.48 -1 2.36 -2.44 2.36 c-2.16 0 -2.6 -1.28 -2.6 -3.2 c0 -1.24 0.68 -8.44 5.92 -18.32 c2.28 -4.32 3.56 -6.36 6.36 -6.36 c2.32 0 3.68 2.04 5.96 6.36 c5.24 9.88 6.32 17.08 6.32 18.32 c0 2.08 -1 3.2 -2.4 3.2 c-2 0 -2.48 -1.16 -2.88 -3.32 c-1.04 -5.76 -6.76 -8.48 -11.24 -8.48 z M9.24 24.32 l0.52 0 c1.96 0 5.4 0.56 8.04 2.72 l0.08 -0.08 c-1.2 -3.44 -2.72 -6.8 -4.68 -9.92 c-1.6 2.4 -2.92 4.8 -3.96 7.28 z M34.962 25.16 l0 12.28 c0 1.48 -0.8 2.68 -2.52 2.68 s-2.52 -1.2 -2.52 -2.68 l0 -22.28 c0 -1.48 0.8 -2.68 2.52 -2.68 l8.56 0 c6.08 0 8.4 1.76 8.4 5.68 c0 2.72 -1.52 4.88 -3.64 6.28 c3.44 3.12 5.28 8.24 5.28 12.08 c0 1.84 -0.36 3.6 -2.36 3.6 c-2.2 0 -2.64 -1.48 -2.68 -3.36 c-0.12 -6.04 -3.4 -11.6 -11.04 -11.6 z M34.962 17.04 l0 3.8 c2.2 0 3.24 0.24 4.24 0.44 l2.44 0.64 c1.08 0 2.72 -1.8 2.72 -3 c0 -1.28 -1 -1.88 -2.72 -1.88 l-6.68 0 z M65.084 17.28 l0 20.12 c0 1.52 -0.8 2.72 -2.52 2.72 s-2.52 -1.2 -2.52 -2.72 l0 -20.12 l-4.64 0 c-1.44 0 -2.6 -0.76 -2.6 -2.4 s1.16 -2.4 2.6 -2.4 l14.32 0 c1.44 0 2.6 0.76 2.6 2.4 s-1.16 2.4 -2.6 2.4 l-4.64 0 z M81.366 15.079999999999998 l0 22.32 c0 1.52 -0.8 2.72 -2.52 2.72 s-2.52 -1.2 -2.52 -2.72 l0 -22.32 c0 -1.52 0.8 -2.72 2.52 -2.72 s2.52 1.2 2.52 2.72 z M93.168 25.04 l0 11.96 c0 1.92 -0.68 3.12 -2.64 3.12 s-2.64 -1.2 -2.64 -3.12 l0 -21.8 c0 -1.52 0.84 -2.72 2.2 -2.72 l12.2 0 c1.36 0 2.44 0.72 2.44 2.28 s-1.08 2.28 -2.44 2.28 l-9.12 0 l0 3.44 l8.72 0 c1.36 0 2.44 0.72 2.44 2.28 s-1.08 2.28 -2.44 2.28 l-8.72 0 z M113.92999999999999 15.079999999999998 l0 22.32 c0 1.52 -0.8 2.72 -2.52 2.72 s-2.52 -1.2 -2.52 -2.72 l0 -22.32 c0 -1.52 0.8 -2.72 2.52 -2.72 s2.52 1.2 2.52 2.72 z M138.332 17.28 l-7.44 0 c-4.32 0 -5.8 2.76 -5.8 6.88 c0 5.12 4.44 11.04 12.88 11.04 c2.28 0 3.24 1.04 3.24 2.4 c0 1.92 -1.48 2.64 -4.24 2.64 c-7.84 0 -17.56 -5.28 -17.56 -16.4 c0 -6.88 4.28 -11.36 10.04 -11.36 l8.88 0 c1.44 0 2.6 0.76 2.6 2.4 s-1.16 2.4 -2.6 2.4 z M150.89399999999998 17.04 l0 3.44 l9.6 0 c1.36 0 2.44 0.72 2.44 2.28 s-1.08 2.28 -2.44 2.28 l-9.6 0 l0 10.4 l10 0 c1.36 0 2.44 0.72 2.44 2.28 s-1.08 2.28 -2.44 2.28 l-11.8 0 c-2.64 0 -3.48 -1.36 -3.48 -3.44 l0 -21.36 c0 -1.52 0.84 -2.72 2.2 -2.72 l13.08 0 c1.36 0 2.44 0.72 2.44 2.28 s-1.08 2.28 -2.44 2.28 l-10 0 z M173.37599999999998 25.16 l0 12.28 c0 1.48 -0.8 2.68 -2.52 2.68 s-2.52 -1.2 -2.52 -2.68 l0 -22.28 c0 -1.48 0.8 -2.68 2.52 -2.68 l8.56 0 c6.08 0 8.4 1.76 8.4 5.68 c0 2.72 -1.52 4.88 -3.64 6.28 c3.44 3.12 5.28 8.24 5.28 12.08 c0 1.84 -0.36 3.6 -2.36 3.6 c-2.2 0 -2.64 -1.48 -2.68 -3.36 c-0.12 -6.04 -3.4 -11.6 -11.04 -11.6 z M173.37599999999998 17.04 l0 3.8 c2.2 0 3.24 0.24 4.24 0.44 l2.44 0.64 c1.08 0 2.72 -1.8 2.72 -3 c0 -1.28 -1 -1.88 -2.72 -1.88 l-6.68 0 z M193.338 21.16 l0 -6.72 c0 -1.2 0.64 -2.2 2.08 -2.2 s2.08 1 2.08 2.2 l0 6.72 c0 1.28 -0.64 2.28 -2.08 2.28 s-2.08 -1 -2.08 -2.28 z M218.54 17.28 l-9.24 0 c-1.24 0 -1.92 0.56 -1.92 1.6 c0 3.64 16.12 0.28 16.12 11.44 c0 5.04 -3.8 9.68 -10.64 9.68 l-8.6 0 c-1.44 0 -2.6 -0.76 -2.6 -2.4 s1.16 -2.4 2.6 -2.4 l6.56 0 c5.2 0 7.4 -1.28 7.4 -4.68 c0 -7.32 -16.12 -1.48 -16.12 -11.56 c0 -4.16 3.16 -6.48 8.16 -6.48 l8.28 0 c1.44 0 2.6 0.76 2.6 2.4 s-1.16 2.4 -2.6 2.4 z M247.744 28.32 l-1.04 0 c-1.08 2.92 -1.68 6.76 -1.96 9.44 c-0.16 1.48 -1 2.36 -2.44 2.36 c-2.16 0 -2.6 -1.28 -2.6 -3.2 c0 -1.24 0.68 -8.44 5.92 -18.32 c2.28 -4.32 3.56 -6.36 6.36 -6.36 c2.32 0 3.68 2.04 5.96 6.36 c5.24 9.88 6.32 17.08 6.32 18.32 c0 2.08 -1 3.2 -2.4 3.2 c-2 0 -2.48 -1.16 -2.88 -3.32 c-1.04 -5.76 -6.76 -8.48 -11.24 -8.48 z M247.904 24.32 l0.52 0 c1.96 0 5.4 0.56 8.04 2.72 l0.08 -0.08 c-1.2 -3.44 -2.72 -6.8 -4.68 -9.92 c-1.6 2.4 -2.92 4.8 -3.96 7.28 z M284.02599999999995 17.28 l-9.24 0 c-1.24 0 -1.92 0.56 -1.92 1.6 c0 3.64 16.12 0.28 16.12 11.44 c0 5.04 -3.8 9.68 -10.64 9.68 l-8.6 0 c-1.44 0 -2.6 -0.76 -2.6 -2.4 s1.16 -2.4 2.6 -2.4 l6.56 0 c5.2 0 7.4 -1.28 7.4 -4.68 c0 -7.32 -16.12 -1.48 -16.12 -11.56 c0 -4.16 3.16 -6.48 8.16 -6.48 l8.28 0 c1.44 0 2.6 0.76 2.6 2.4 s-1.16 2.4 -2.6 2.4 z M305.0679999999999 27.119999999999997 l0 10.04 c0 1.68 -0.88 2.96 -2.72 2.96 s-2.72 -1.28 -2.72 -2.96 l0 -10.04 c-3.52 -2.76 -7.72 -8.64 -7.72 -12.4 c0 -1.4 1.16 -2.36 2.36 -2.36 c1.04 0 2.36 0.48 2.92 2.64 c0.72 2.72 2.76 6.52 5.16 8.28 c2.4 -1.76 4.44 -5.56 5.16 -8.28 c0.56 -2.16 1.88 -2.64 2.92 -2.64 c1.2 0 2.36 0.96 2.36 2.36 c0 3.76 -4.2 9.64 -7.72 12.4 z M317.06999999999994 36.56 l0 -21.48 c0 -1.52 0.84 -2.72 2.52 -2.72 s2.52 1.2 2.52 2.72 l0 20.12 l7.72 0 c1.44 0 2.6 0.76 2.6 2.4 s-1.16 2.4 -2.6 2.4 l-9.28 0 c-2.64 0 -3.48 -1.36 -3.48 -3.44 z M334.832 27.560000000000002 l1.16 -12.4 c0.12 -1.36 0.76 -2.8 2.4 -2.8 c1.76 0 2.4 1.36 2.4 2.32 c0 5.28 -1.24 10.48 -1.24 15.76 c0 3.12 2.24 5.24 5.32 5.24 s5.32 -2.12 5.32 -5.24 c0 -5.28 -1.24 -10.48 -1.24 -15.76 c0 -0.96 0.64 -2.32 2.4 -2.32 c1.64 0 2.28 1.44 2.4 2.8 l1.16 12.4 c0.08 1.04 0.08 2.24 0.08 3.36 c0 5.56 -4.4 9.32 -10.12 9.32 s-10.12 -3.76 -10.12 -9.32 c0 -1.12 0 -2.32 0.08 -3.36 z M372.27399999999994 22.44 c1.64 -2 2.6 -4.56 3.96 -7.88 c0.64 -1.56 1.6 -2.2 3.2 -2.2 c3.08 0 3.2 2.36 3.84 6.2 c0.76 4.52 1.44 12.36 1.44 16.92 c0 2.8 -0.2 4.64 -2.48 4.64 c-2.24 0 -2.56 -1.52 -2.56 -3.4 l0 -6.32 c0 -3.48 -0.4 -7.08 -0.96 -10.76 l-0.08 0 c-0.64 2.04 -3.56 8.72 -6.36 8.72 s-5.72 -6.68 -6.36 -8.72 l-0.08 0 c-0.56 3.68 -0.96 7.28 -0.96 10.76 l0 6.32 c0 1.88 -0.32 3.4 -2.56 3.4 c-2.28 0 -2.48 -1.84 -2.48 -4.64 c0 -4.56 0.68 -12.4 1.44 -16.92 c0.64 -3.84 0.76 -6.2 3.84 -6.2 c1.6 0 2.56 0.64 3.2 2.2 c1.36 3.32 2.32 5.88 3.96 7.88 z"></path></g></svg>